<svg width="22" height="22" viewBox="0 0 22 22" fill="none" xmlns="http://www.w3.org/2000/svg">
<path opacity="0.4" d="M14.7359 1.83333H17.8397C19.1251 1.83333 20.1667 2.88369 20.1667 4.17996V7.30998C20.1667 8.60625 19.1251 9.65661 17.8397 9.65661H14.7359C13.4505 9.65661 12.4089 8.60625 12.4089 7.30998V4.17996C12.4089 2.88369 13.4505 1.83333 14.7359 1.83333Z" fill="#56555C"/>
<path d="M7.26412 12.3434C8.54953 12.3434 9.5911 13.3937 9.5911 14.69V17.82C9.5911 19.1154 8.54953 20.1667 7.26412 20.1667H4.16032C2.8749 20.1667 1.83334 19.1154 1.83334 17.82V14.69C1.83334 13.3937 2.8749 12.3434 4.16032 12.3434H7.26412ZM17.8397 12.3434C19.1251 12.3434 20.1667 13.3937 20.1667 14.69V17.82C20.1667 19.1154 19.1251 20.1667 17.8397 20.1667H14.7359C13.4505 20.1667 12.4089 19.1154 12.4089 17.82V14.69C12.4089 13.3937 13.4505 12.3434 14.7359 12.3434H17.8397ZM7.26412 1.83333C8.54953 1.83333 9.5911 2.88369 9.5911 4.17996V7.30998C9.5911 8.60625 8.54953 9.65661 7.26412 9.65661H4.16032C2.8749 9.65661 1.83334 8.60625 1.83334 7.30998V4.17996C1.83334 2.88369 2.8749 1.83333 4.16032 1.83333H7.26412Z" fill="#56555C"/>
</svg>
