<svg width="166" height="156" viewBox="0 0 166 156" fill="none" xmlns="http://www.w3.org/2000/svg">
<path fill-rule="evenodd" clip-rule="evenodd" d="M156.775 4.14365C162.328 9.28173 162.665 17.949 157.527 23.5025L54.7904 134.546L6.71176 82.5799C1.57367 77.0264 1.91044 68.3592 7.46396 63.2211C13.0175 58.083 21.6847 58.4197 26.8228 63.9733L54.7904 94.2021L137.416 4.89585C142.554 -0.65767 151.221 -0.994443 156.775 4.14365Z" fill="#F8CEEE" stroke="black" stroke-linecap="round"/>
<path fill-rule="evenodd" clip-rule="evenodd" d="M160.795 24.3001C166.348 29.4382 166.685 38.1055 161.547 43.659L58.8103 154.702L10.7317 102.736C5.59357 97.1829 5.93034 88.5156 11.4839 83.3776C17.0374 78.2395 25.7046 78.5762 30.8427 84.1298L58.8103 114.359L141.436 25.0523C146.574 19.4988 155.241 19.1621 160.795 24.3001Z" fill="#F8CEEE" stroke="black" stroke-linecap="round"/>
<path fill-rule="evenodd" clip-rule="evenodd" d="M154.207 24.3001C159.76 29.4382 160.097 38.1055 154.959 43.659L52.2222 154.702L4.14365 102.736C-0.994443 97.1829 -0.657671 88.5156 4.89585 83.3776C10.4494 78.2395 19.1166 78.5762 24.2547 84.1298L52.2222 114.359L134.848 25.0523C139.986 19.4988 148.653 19.1621 154.207 24.3001Z" fill="#F8CEEE" stroke="black" stroke-linecap="round"/>
</svg>
