<svg width="19" height="19" viewBox="0 0 19 19" fill="none" xmlns="http://www.w3.org/2000/svg">
<path d="M5 10C5 10.8284 4.32843 11.5 3.5 11.5C2.67157 11.5 2 10.8284 2 10C2 9.17157 2.67157 8.5 3.5 8.5C4.32843 8.5 5 9.17157 5 10Z" fill="#56555C"/>
<path d="M11 10C11 10.8284 10.3284 11.5 9.5 11.5C8.67157 11.5 8 10.8284 8 10C8 9.17157 8.67157 8.5 9.5 8.5C10.3284 8.5 11 9.17157 11 10Z" fill="#56555C"/>
<path d="M17 10C17 10.8284 16.3284 11.5 15.5 11.5C14.6716 11.5 14 10.8284 14 10C14 9.17157 14.6716 8.5 15.5 8.5C16.3284 8.5 17 9.17157 17 10Z" fill="#56555C"/>
</svg>
