<svg width="136" height="180" viewBox="0 0 136 180" fill="none" xmlns="http://www.w3.org/2000/svg">
<rect x="0.5" y="37.3503" width="134.118" height="22.622" rx="11.311" fill="#F8CEEE" stroke="black"/>
<rect x="0.5" y="77.9803" width="134.118" height="22.622" rx="11.311" fill="#F8CEEE" stroke="black"/>
<rect x="0.5" y="119.555" width="134.118" height="22.622" rx="11.311" fill="#F8CEEE" stroke="black"/>
<path d="M88.8969 5.81934C89.4753 9.29545 90.6335 13.9394 92.9525 18.5938C95.2725 23.25 98.7594 27.9265 103.999 31.4463C107.85 34.0326 112.631 35.9814 118.562 36.8496C112.63 37.7176 107.848 39.6681 103.997 42.2549C98.7577 45.7746 95.2702 50.4503 92.9506 55.1064C90.6319 59.7606 89.475 64.4048 88.8969 67.8809C88.8687 68.0502 88.8423 68.2171 88.8168 68.3809C88.7913 68.2172 88.7658 68.0502 88.7377 67.8809C88.1595 64.4048 87.0026 59.7607 84.684 55.1064C82.3643 50.4503 78.8768 45.7746 73.6371 42.2549C69.7864 39.6683 65.0048 37.7187 59.0736 36.8506C65.0048 35.9825 69.7865 34.0328 73.6371 31.4463C78.8769 27.9265 82.3643 23.25 84.684 18.5938C87.0025 13.9395 88.1595 9.29539 88.7377 5.81934C88.7658 5.64995 88.7913 5.4831 88.8168 5.31934C88.8423 5.48315 88.8687 5.64991 88.8969 5.81934Z" fill="#F8CEEE" stroke="black"/>
<path d="M47.3224 111.646C47.9008 115.122 49.059 119.766 51.3781 124.42C53.698 129.077 57.1849 133.753 62.4249 137.273C66.2754 139.859 71.0569 141.808 76.9874 142.676C71.0557 143.544 66.2739 145.495 62.423 148.082C57.1833 151.601 53.6957 156.277 51.3761 160.933C49.0575 165.587 47.9006 170.231 47.3224 173.708C47.2942 173.877 47.2678 174.044 47.2423 174.208C47.2168 174.044 47.1914 173.877 47.1632 173.708C46.585 170.231 45.4281 165.587 43.1095 160.933C40.7899 156.277 37.3023 151.601 32.0626 148.082C28.212 145.495 23.4304 143.545 17.4991 142.677C23.4303 141.809 28.212 139.86 32.0626 137.273C37.3024 133.753 40.7899 129.077 43.1095 124.42C45.4281 119.766 46.5851 115.122 47.1632 111.646C47.1914 111.477 47.2168 111.31 47.2423 111.146C47.2678 111.31 47.2942 111.477 47.3224 111.646Z" fill="#F8CEEE" stroke="black"/>
</svg>
