<svg width="16" height="16" viewBox="0 0 16 16" fill="none" xmlns="http://www.w3.org/2000/svg">
<path opacity="0.4" d="M11.7333 0H4.26667C1.54311 0 0 1.54311 0 4.26667V11.7333C0 14.4498 1.536 16 4.26667 16H11.7333C14.4569 16 16 14.4498 16 11.7333V4.26667C16 1.54311 14.4569 0 11.7333 0Z" fill="#FF36C9"/>
<path d="M10.6564 8.56667H8.5996V10.6056C8.5996 10.9339 8.33115 11.2 7.99999 11.2C7.66883 11.2 7.40037 10.9339 7.40037 10.6056V8.56667H5.34362C5.03473 8.53496 4.79999 8.27692 4.79999 7.96906C4.79999 7.6612 5.03473 7.40316 5.34362 7.37145H7.39392V5.33893C7.42591 5.03271 7.68621 4.8 7.99676 4.8C8.30731 4.8 8.56762 5.03271 8.5996 5.33893V7.37145H10.6564C10.9652 7.40316 11.2 7.6612 11.2 7.96906C11.2 8.27692 10.9652 8.53496 10.6564 8.56667Z" fill="#FF36C9"/>
</svg>
